<svg width="24" height="24" viewBox="0 0 24 24" fill="none" xmlns="http://www.w3.org/2000/svg">
<path fill-rule="evenodd" clip-rule="evenodd" d="M4.5 12C4.5 11.7239 4.72386 11.5 5 11.5H19C19.2761 11.5 19.5 11.7239 19.5 12C19.5 12.2761 19.2761 12.5 19 12.5H5C4.72386 12.5 4.5 12.2761 4.5 12Z" fill="#19191E"/>
<path fill-rule="evenodd" clip-rule="evenodd" d="M12.3536 4.64645C12.5488 4.84171 12.5488 5.15829 12.3536 5.35355L5.70711 12L12.3536 18.6464C12.5488 18.8417 12.5488 19.1583 12.3536 19.3536C12.1583 19.5488 11.8417 19.5488 11.6464 19.3536L4.64645 12.3536C4.45118 12.1583 4.45118 11.8417 4.64645 11.6464L11.6464 4.64645C11.8417 4.45118 12.1583 4.45118 12.3536 4.64645Z" fill="#19191E"/>
</svg>
